<mxfile host="app.diagrams.net" modified="2021-09-05T05:33:07.790Z" agent="5.0 (Windows NT 10.0; Win64; x64) AppleWebKit/537.36 (KHTML, like Gecko) Chrome/92.0.4515.159 Safari/537.36" etag="ruq4DOwWApNl0oJXk8Vw" version="15.0.6" type="github">
  <diagram id="CuS6hPE-WKYyJFjssovu" name="Page-1">
    <mxGraphModel dx="1209" dy="626" grid="1" gridSize="10" guides="1" tooltips="1" connect="1" arrows="1" fold="1" page="1" pageScale="1" pageWidth="850" pageHeight="1100" math="0" shadow="0">
      <root>
        <mxCell id="0" />
        <mxCell id="1" parent="0" />
        <mxCell id="CJtxYBf6Ji5FPYMwAMnO-1" value="GITHUB/REPO" style="rounded=1;whiteSpace=wrap;html=1;" parent="1" vertex="1">
          <mxGeometry x="70" y="140" width="270" height="60" as="geometry" />
        </mxCell>
        <mxCell id="CJtxYBf6Ji5FPYMwAMnO-2" value="dev1" style="rounded=1;whiteSpace=wrap;html=1;" parent="1" vertex="1">
          <mxGeometry x="40" y="470" width="120" height="60" as="geometry" />
        </mxCell>
        <mxCell id="CJtxYBf6Ji5FPYMwAMnO-3" value="dev2" style="rounded=1;whiteSpace=wrap;html=1;" parent="1" vertex="1">
          <mxGeometry x="220" y="470" width="120" height="60" as="geometry" />
        </mxCell>
        <mxCell id="CJtxYBf6Ji5FPYMwAMnO-4" value="dev3" style="rounded=1;whiteSpace=wrap;html=1;" parent="1" vertex="1">
          <mxGeometry x="400" y="460" width="120" height="60" as="geometry" />
        </mxCell>
        <mxCell id="CJtxYBf6Ji5FPYMwAMnO-5" value="" style="endArrow=classic;html=1;entryX=0.14;entryY=1.028;entryDx=0;entryDy=0;entryPerimeter=0;" parent="1" target="CJtxYBf6Ji5FPYMwAMnO-1" edge="1">
          <mxGeometry width="50" height="50" relative="1" as="geometry">
            <mxPoint x="80" y="470" as="sourcePoint" />
            <mxPoint x="130" y="420" as="targetPoint" />
          </mxGeometry>
        </mxCell>
        <mxCell id="CJtxYBf6Ji5FPYMwAMnO-6" value="" style="endArrow=classic;html=1;exitX=0.25;exitY=0;exitDx=0;exitDy=0;" parent="1" source="CJtxYBf6Ji5FPYMwAMnO-3" edge="1">
          <mxGeometry width="50" height="50" relative="1" as="geometry">
            <mxPoint x="250" y="458" as="sourcePoint" />
            <mxPoint x="200" y="200" as="targetPoint" />
          </mxGeometry>
        </mxCell>
        <mxCell id="CJtxYBf6Ji5FPYMwAMnO-7" value="" style="endArrow=classic;html=1;entryX=0.63;entryY=1;entryDx=0;entryDy=0;entryPerimeter=0;" parent="1" target="CJtxYBf6Ji5FPYMwAMnO-1" edge="1">
          <mxGeometry width="50" height="50" relative="1" as="geometry">
            <mxPoint x="460" y="450" as="sourcePoint" />
            <mxPoint x="227.79999999999995" y="231.67999999999995" as="targetPoint" />
          </mxGeometry>
        </mxCell>
        <mxCell id="CJtxYBf6Ji5FPYMwAMnO-8" value="JENKINS&lt;br&gt;GITHUB URL" style="rounded=1;whiteSpace=wrap;html=1;" parent="1" vertex="1">
          <mxGeometry x="380" y="210" width="180" height="70" as="geometry" />
        </mxCell>
        <mxCell id="CJtxYBf6Ji5FPYMwAMnO-9" value="" style="endArrow=classic;html=1;exitX=1;exitY=0.5;exitDx=0;exitDy=0;entryX=-0.017;entryY=0.372;entryDx=0;entryDy=0;entryPerimeter=0;" parent="1" source="CJtxYBf6Ji5FPYMwAMnO-1" target="CJtxYBf6Ji5FPYMwAMnO-8" edge="1">
          <mxGeometry width="50" height="50" relative="1" as="geometry">
            <mxPoint x="340" y="210" as="sourcePoint" />
            <mxPoint x="390" y="160" as="targetPoint" />
          </mxGeometry>
        </mxCell>
        <mxCell id="CJtxYBf6Ji5FPYMwAMnO-12" value="maven" style="rounded=1;whiteSpace=wrap;html=1;" parent="1" vertex="1">
          <mxGeometry x="620" y="130" width="120" height="60" as="geometry" />
        </mxCell>
        <mxCell id="CJtxYBf6Ji5FPYMwAMnO-13" value="maven" style="rounded=1;whiteSpace=wrap;html=1;" parent="1" vertex="1">
          <mxGeometry x="620" y="220" width="120" height="60" as="geometry" />
        </mxCell>
        <mxCell id="CJtxYBf6Ji5FPYMwAMnO-14" value="maven" style="rounded=1;whiteSpace=wrap;html=1;" parent="1" vertex="1">
          <mxGeometry x="620" y="320" width="120" height="60" as="geometry" />
        </mxCell>
        <mxCell id="CJtxYBf6Ji5FPYMwAMnO-15" value="" style="endArrow=none;html=1;exitX=1;exitY=0;exitDx=0;exitDy=0;entryX=0;entryY=1;entryDx=0;entryDy=0;" parent="1" source="CJtxYBf6Ji5FPYMwAMnO-8" target="CJtxYBf6Ji5FPYMwAMnO-12" edge="1">
          <mxGeometry width="50" height="50" relative="1" as="geometry">
            <mxPoint x="650" y="250" as="sourcePoint" />
            <mxPoint x="700" y="200" as="targetPoint" />
          </mxGeometry>
        </mxCell>
        <mxCell id="CJtxYBf6Ji5FPYMwAMnO-16" value="" style="endArrow=none;html=1;exitX=1;exitY=0.75;exitDx=0;exitDy=0;entryX=0;entryY=0.833;entryDx=0;entryDy=0;entryPerimeter=0;" parent="1" source="CJtxYBf6Ji5FPYMwAMnO-8" target="CJtxYBf6Ji5FPYMwAMnO-13" edge="1">
          <mxGeometry width="50" height="50" relative="1" as="geometry">
            <mxPoint x="660" y="280" as="sourcePoint" />
            <mxPoint x="710" y="230" as="targetPoint" />
          </mxGeometry>
        </mxCell>
        <mxCell id="CJtxYBf6Ji5FPYMwAMnO-17" value="" style="endArrow=none;html=1;exitX=0.964;exitY=1.017;exitDx=0;exitDy=0;exitPerimeter=0;entryX=0;entryY=0.25;entryDx=0;entryDy=0;" parent="1" source="CJtxYBf6Ji5FPYMwAMnO-8" target="CJtxYBf6Ji5FPYMwAMnO-14" edge="1">
          <mxGeometry width="50" height="50" relative="1" as="geometry">
            <mxPoint x="690" y="420" as="sourcePoint" />
            <mxPoint x="740" y="370" as="targetPoint" />
          </mxGeometry>
        </mxCell>
        <mxCell id="CJtxYBf6Ji5FPYMwAMnO-18" value="server 1" style="text;html=1;strokeColor=none;fillColor=none;align=center;verticalAlign=middle;whiteSpace=wrap;rounded=0;" parent="1" vertex="1">
          <mxGeometry x="520" y="300" width="60" height="20" as="geometry" />
        </mxCell>
        <mxCell id="CJtxYBf6Ji5FPYMwAMnO-19" value="JAR/WAR" style="rounded=1;whiteSpace=wrap;html=1;" parent="1" vertex="1">
          <mxGeometry x="820" y="220" width="120" height="60" as="geometry" />
        </mxCell>
        <mxCell id="CJtxYBf6Ji5FPYMwAMnO-20" value="" style="endArrow=none;html=1;entryX=0;entryY=0.5;entryDx=0;entryDy=0;exitX=1;exitY=0.75;exitDx=0;exitDy=0;" parent="1" source="CJtxYBf6Ji5FPYMwAMnO-12" target="CJtxYBf6Ji5FPYMwAMnO-19" edge="1">
          <mxGeometry width="50" height="50" relative="1" as="geometry">
            <mxPoint x="750" y="170" as="sourcePoint" />
            <mxPoint x="810" y="240" as="targetPoint" />
          </mxGeometry>
        </mxCell>
        <mxCell id="CJtxYBf6Ji5FPYMwAMnO-22" value="" style="endArrow=none;html=1;exitX=1;exitY=0.75;exitDx=0;exitDy=0;" parent="1" edge="1">
          <mxGeometry width="50" height="50" relative="1" as="geometry">
            <mxPoint x="750" y="185" as="sourcePoint" />
            <mxPoint x="820" y="250" as="targetPoint" />
          </mxGeometry>
        </mxCell>
        <mxCell id="CJtxYBf6Ji5FPYMwAMnO-23" value="" style="endArrow=none;html=1;exitX=1;exitY=0.75;exitDx=0;exitDy=0;entryX=0;entryY=0.75;entryDx=0;entryDy=0;" parent="1" source="CJtxYBf6Ji5FPYMwAMnO-13" target="CJtxYBf6Ji5FPYMwAMnO-19" edge="1">
          <mxGeometry width="50" height="50" relative="1" as="geometry">
            <mxPoint x="740" y="300" as="sourcePoint" />
            <mxPoint x="810" y="265" as="targetPoint" />
          </mxGeometry>
        </mxCell>
        <mxCell id="CJtxYBf6Ji5FPYMwAMnO-24" value="" style="endArrow=none;html=1;exitX=1.01;exitY=0.624;exitDx=0;exitDy=0;exitPerimeter=0;" parent="1" source="CJtxYBf6Ji5FPYMwAMnO-14" edge="1">
          <mxGeometry width="50" height="50" relative="1" as="geometry">
            <mxPoint x="740" y="390" as="sourcePoint" />
            <mxPoint x="820" y="280" as="targetPoint" />
          </mxGeometry>
        </mxCell>
        <mxCell id="CJtxYBf6Ji5FPYMwAMnO-25" value="output" style="text;html=1;strokeColor=none;fillColor=none;align=center;verticalAlign=middle;whiteSpace=wrap;rounded=0;" parent="1" vertex="1">
          <mxGeometry x="760" y="170" width="40" height="20" as="geometry" />
        </mxCell>
        <mxCell id="CJtxYBf6Ji5FPYMwAMnO-26" value="output" style="text;html=1;strokeColor=none;fillColor=none;align=center;verticalAlign=middle;whiteSpace=wrap;rounded=0;" parent="1" vertex="1">
          <mxGeometry x="750" y="240" width="40" height="20" as="geometry" />
        </mxCell>
        <mxCell id="CJtxYBf6Ji5FPYMwAMnO-27" value="output" style="text;html=1;strokeColor=none;fillColor=none;align=center;verticalAlign=middle;whiteSpace=wrap;rounded=0;" parent="1" vertex="1">
          <mxGeometry x="750" y="300" width="40" height="20" as="geometry" />
        </mxCell>
        <mxCell id="CJtxYBf6Ji5FPYMwAMnO-28" value="A" style="rounded=1;whiteSpace=wrap;html=1;" parent="1" vertex="1">
          <mxGeometry x="1010" y="60" width="120" height="60" as="geometry" />
        </mxCell>
        <mxCell id="CJtxYBf6Ji5FPYMwAMnO-29" value="B" style="rounded=1;whiteSpace=wrap;html=1;" parent="1" vertex="1">
          <mxGeometry x="1010" y="150" width="120" height="60" as="geometry" />
        </mxCell>
        <mxCell id="CJtxYBf6Ji5FPYMwAMnO-30" value="C" style="rounded=1;whiteSpace=wrap;html=1;" parent="1" vertex="1">
          <mxGeometry x="1010" y="250" width="120" height="60" as="geometry" />
        </mxCell>
        <mxCell id="CJtxYBf6Ji5FPYMwAMnO-31" value="D" style="rounded=1;whiteSpace=wrap;html=1;" parent="1" vertex="1">
          <mxGeometry x="1010" y="360" width="120" height="60" as="geometry" />
        </mxCell>
        <mxCell id="CJtxYBf6Ji5FPYMwAMnO-32" value="E" style="rounded=1;whiteSpace=wrap;html=1;" parent="1" vertex="1">
          <mxGeometry x="1010" y="470" width="120" height="60" as="geometry" />
        </mxCell>
        <mxCell id="CJtxYBf6Ji5FPYMwAMnO-33" value="F" style="rounded=1;whiteSpace=wrap;html=1;" parent="1" vertex="1">
          <mxGeometry x="1010" y="560" width="120" height="60" as="geometry" />
        </mxCell>
        <mxCell id="CJtxYBf6Ji5FPYMwAMnO-34" value="" style="endArrow=none;html=1;entryX=0;entryY=0.5;entryDx=0;entryDy=0;" parent="1" target="CJtxYBf6Ji5FPYMwAMnO-28" edge="1">
          <mxGeometry width="50" height="50" relative="1" as="geometry">
            <mxPoint x="740" y="180" as="sourcePoint" />
            <mxPoint x="1000" y="90" as="targetPoint" />
          </mxGeometry>
        </mxCell>
        <mxCell id="CJtxYBf6Ji5FPYMwAMnO-35" value="" style="endArrow=none;html=1;entryX=0;entryY=0.667;entryDx=0;entryDy=0;entryPerimeter=0;" parent="1" target="CJtxYBf6Ji5FPYMwAMnO-29" edge="1">
          <mxGeometry width="50" height="50" relative="1" as="geometry">
            <mxPoint x="750" y="180" as="sourcePoint" />
            <mxPoint x="1000" y="190" as="targetPoint" />
          </mxGeometry>
        </mxCell>
        <mxCell id="CJtxYBf6Ji5FPYMwAMnO-36" value="" style="endArrow=none;html=1;entryX=0;entryY=0.5;entryDx=0;entryDy=0;" parent="1" target="CJtxYBf6Ji5FPYMwAMnO-30" edge="1">
          <mxGeometry width="50" height="50" relative="1" as="geometry">
            <mxPoint x="740" y="180" as="sourcePoint" />
            <mxPoint x="1020" y="110" as="targetPoint" />
          </mxGeometry>
        </mxCell>
        <mxCell id="CJtxYBf6Ji5FPYMwAMnO-37" value="" style="endArrow=none;html=1;entryX=0;entryY=0.25;entryDx=0;entryDy=0;" parent="1" target="CJtxYBf6Ji5FPYMwAMnO-31" edge="1">
          <mxGeometry width="50" height="50" relative="1" as="geometry">
            <mxPoint x="740" y="260" as="sourcePoint" />
            <mxPoint x="1000" y="370" as="targetPoint" />
          </mxGeometry>
        </mxCell>
        <mxCell id="CJtxYBf6Ji5FPYMwAMnO-38" value="" style="endArrow=none;html=1;exitX=1;exitY=0.833;exitDx=0;exitDy=0;exitPerimeter=0;entryX=0;entryY=0.25;entryDx=0;entryDy=0;" parent="1" source="CJtxYBf6Ji5FPYMwAMnO-13" target="CJtxYBf6Ji5FPYMwAMnO-32" edge="1">
          <mxGeometry width="50" height="50" relative="1" as="geometry">
            <mxPoint x="750" y="270" as="sourcePoint" />
            <mxPoint x="1000" y="480" as="targetPoint" />
          </mxGeometry>
        </mxCell>
        <mxCell id="CJtxYBf6Ji5FPYMwAMnO-39" value="" style="endArrow=none;html=1;entryX=0;entryY=0.5;entryDx=0;entryDy=0;" parent="1" target="CJtxYBf6Ji5FPYMwAMnO-33" edge="1">
          <mxGeometry width="50" height="50" relative="1" as="geometry">
            <mxPoint x="740" y="360" as="sourcePoint" />
            <mxPoint x="1000" y="590" as="targetPoint" />
          </mxGeometry>
        </mxCell>
        <mxCell id="CJtxYBf6Ji5FPYMwAMnO-40" value="JAR/WAR&lt;br&gt;JDK&lt;br&gt;LIB" style="rounded=0;whiteSpace=wrap;html=1;" parent="1" vertex="1">
          <mxGeometry x="600" y="500" width="190" height="80" as="geometry" />
        </mxCell>
        <mxCell id="CJtxYBf6Ji5FPYMwAMnO-41" value="ANSIABLE" style="text;html=1;strokeColor=none;fillColor=none;align=center;verticalAlign=middle;whiteSpace=wrap;rounded=0;" parent="1" vertex="1">
          <mxGeometry x="850" y="100" width="40" height="20" as="geometry" />
        </mxCell>
        <mxCell id="CJtxYBf6Ji5FPYMwAMnO-42" value="DOCKER" style="text;html=1;strokeColor=none;fillColor=none;align=center;verticalAlign=middle;whiteSpace=wrap;rounded=0;" parent="1" vertex="1">
          <mxGeometry x="675" y="470" width="55" height="20" as="geometry" />
        </mxCell>
        <mxCell id="0rAL_-eeFZPspsFF5M_q-1" value="A" style="rounded=1;whiteSpace=wrap;html=1;" vertex="1" parent="1">
          <mxGeometry x="1160" y="60" width="120" height="60" as="geometry" />
        </mxCell>
        <mxCell id="0rAL_-eeFZPspsFF5M_q-2" value="B" style="rounded=1;whiteSpace=wrap;html=1;" vertex="1" parent="1">
          <mxGeometry x="1160" y="140" width="120" height="60" as="geometry" />
        </mxCell>
        <mxCell id="0rAL_-eeFZPspsFF5M_q-3" value="C" style="rounded=1;whiteSpace=wrap;html=1;" vertex="1" parent="1">
          <mxGeometry x="1160" y="250" width="120" height="60" as="geometry" />
        </mxCell>
        <mxCell id="0rAL_-eeFZPspsFF5M_q-6" value="D" style="rounded=1;whiteSpace=wrap;html=1;" vertex="1" parent="1">
          <mxGeometry x="1160" y="360" width="120" height="60" as="geometry" />
        </mxCell>
        <mxCell id="0rAL_-eeFZPspsFF5M_q-7" value="E" style="rounded=1;whiteSpace=wrap;html=1;" vertex="1" parent="1">
          <mxGeometry x="1160" y="460" width="120" height="60" as="geometry" />
        </mxCell>
        <mxCell id="0rAL_-eeFZPspsFF5M_q-8" value="F" style="rounded=1;whiteSpace=wrap;html=1;" vertex="1" parent="1">
          <mxGeometry x="1160" y="560" width="120" height="60" as="geometry" />
        </mxCell>
        <mxCell id="0rAL_-eeFZPspsFF5M_q-9" value="F" style="rounded=1;whiteSpace=wrap;html=1;" vertex="1" parent="1">
          <mxGeometry x="1310" y="60" width="120" height="60" as="geometry" />
        </mxCell>
        <mxCell id="0rAL_-eeFZPspsFF5M_q-10" value="B" style="rounded=1;whiteSpace=wrap;html=1;" vertex="1" parent="1">
          <mxGeometry x="1310" y="140" width="120" height="60" as="geometry" />
        </mxCell>
        <mxCell id="0rAL_-eeFZPspsFF5M_q-11" value="C" style="rounded=1;whiteSpace=wrap;html=1;" vertex="1" parent="1">
          <mxGeometry x="1320" y="260" width="120" height="60" as="geometry" />
        </mxCell>
        <mxCell id="0rAL_-eeFZPspsFF5M_q-12" value="D" style="rounded=1;whiteSpace=wrap;html=1;" vertex="1" parent="1">
          <mxGeometry x="1320" y="360" width="120" height="60" as="geometry" />
        </mxCell>
        <mxCell id="0rAL_-eeFZPspsFF5M_q-13" value="E" style="rounded=1;whiteSpace=wrap;html=1;" vertex="1" parent="1">
          <mxGeometry x="1320" y="460" width="120" height="60" as="geometry" />
        </mxCell>
        <mxCell id="0rAL_-eeFZPspsFF5M_q-14" value="E" style="rounded=1;whiteSpace=wrap;html=1;" vertex="1" parent="1">
          <mxGeometry x="1320" y="560" width="120" height="60" as="geometry" />
        </mxCell>
        <mxCell id="0rAL_-eeFZPspsFF5M_q-15" value="DEV" style="text;html=1;strokeColor=none;fillColor=none;align=center;verticalAlign=middle;whiteSpace=wrap;rounded=0;" vertex="1" parent="1">
          <mxGeometry x="1040" y="20" width="40" height="20" as="geometry" />
        </mxCell>
        <mxCell id="0rAL_-eeFZPspsFF5M_q-16" value="TESTING" style="text;html=1;strokeColor=none;fillColor=none;align=center;verticalAlign=middle;whiteSpace=wrap;rounded=0;" vertex="1" parent="1">
          <mxGeometry x="1210" y="20" width="40" height="20" as="geometry" />
        </mxCell>
        <mxCell id="0rAL_-eeFZPspsFF5M_q-17" value="PRODCUTION" style="text;html=1;strokeColor=none;fillColor=none;align=center;verticalAlign=middle;whiteSpace=wrap;rounded=0;" vertex="1" parent="1">
          <mxGeometry x="1350" y="20" width="40" height="20" as="geometry" />
        </mxCell>
        <mxCell id="0rAL_-eeFZPspsFF5M_q-22" value="BUILD NOW" style="text;html=1;strokeColor=none;fillColor=none;align=center;verticalAlign=middle;whiteSpace=wrap;rounded=0;" vertex="1" parent="1">
          <mxGeometry x="420" y="320" width="100" height="20" as="geometry" />
        </mxCell>
        <mxCell id="0rAL_-eeFZPspsFF5M_q-23" value="" style="endArrow=classic;html=1;exitX=0.626;exitY=-0.172;exitDx=0;exitDy=0;exitPerimeter=0;entryX=0.5;entryY=1;entryDx=0;entryDy=0;" edge="1" parent="1" source="0rAL_-eeFZPspsFF5M_q-22" target="CJtxYBf6Ji5FPYMwAMnO-8">
          <mxGeometry width="50" height="50" relative="1" as="geometry">
            <mxPoint x="450" y="330" as="sourcePoint" />
            <mxPoint x="500" y="280" as="targetPoint" />
          </mxGeometry>
        </mxCell>
      </root>
    </mxGraphModel>
  </diagram>
</mxfile>
